#define b1_width 21
#define b1_height 21
static char b1_bits[] = {
   0x00, 0x00, 0x10, 0x00, 0x00, 0x10, 0x00, 0x00, 0x10, 0x00, 0x00, 0x10,
   0x00, 0x00, 0x10, 0x00, 0x06, 0x10, 0x00, 0x07, 0x10, 0x80, 0x07, 0x10,
   0x80, 0x06, 0x10, 0x00, 0x06, 0x10, 0x00, 0x06, 0x10, 0x00, 0x06, 0x10,
   0x00, 0x06, 0x10, 0x00, 0x06, 0x10, 0x00, 0x0f, 0x10, 0xc0, 0x3f, 0x10,
   0x00, 0x00, 0x10, 0x00, 0x00, 0x10, 0x00, 0x00, 0x10, 0x00, 0x00, 0x10,
   0xff, 0xff, 0x1f};
