#define b2_width 21
#define b2_height 21
static char b2_bits[] = {
   0x00, 0x00, 0x10, 0x00, 0x00, 0x10, 0x00, 0x00, 0x10, 0x00, 0x00, 0x10,
   0x00, 0x00, 0x10, 0x80, 0x1f, 0x10, 0xc0, 0x3f, 0x10, 0x40, 0x30, 0x10,
   0x00, 0x30, 0x10, 0x00, 0x30, 0x10, 0x00, 0x18, 0x10, 0x00, 0x0c, 0x10,
   0x00, 0x06, 0x10, 0x00, 0x03, 0x10, 0x80, 0x3f, 0x10, 0xc0, 0x3f, 0x10,
   0x00, 0x00, 0x10, 0x00, 0x00, 0x10, 0x00, 0x00, 0x10, 0x00, 0x00, 0x10,
   0xff, 0xff, 0x1f};
