#define b3_width 21
#define b3_height 21
static char b3_bits[] = {
   0x00, 0x00, 0x10, 0x00, 0x00, 0x10, 0x00, 0x00, 0x10, 0x00, 0x00, 0x10,
   0xc0, 0x1f, 0x10, 0x80, 0x3f, 0x10, 0x00, 0x30, 0x10, 0x00, 0x30, 0x10,
   0x00, 0x30, 0x10, 0x00, 0x1e, 0x10, 0x00, 0x1e, 0x10, 0x00, 0x30, 0x10,
   0x00, 0x30, 0x10, 0x00, 0x30, 0x10, 0x80, 0x3f, 0x10, 0xc0, 0x1f, 0x10,
   0x00, 0x00, 0x10, 0x00, 0x00, 0x10, 0x00, 0x00, 0x10, 0x00, 0x00, 0x10,
   0xff, 0xff, 0x1f};
