#define b4_width 21
#define b4_height 21
static char b4_bits[] = {
   0x00, 0x00, 0x10, 0x00, 0x00, 0x10, 0x00, 0x00, 0x10, 0x00, 0x00, 0x10,
   0x00, 0x18, 0x10, 0x00, 0x1c, 0x10, 0x00, 0x1e, 0x10, 0x00, 0x1b, 0x10,
   0x80, 0x19, 0x10, 0xc0, 0x18, 0x10, 0x60, 0x18, 0x10, 0xf0, 0x7f, 0x10,
   0xf0, 0x7f, 0x10, 0x00, 0x18, 0x10, 0x00, 0x18, 0x10, 0x00, 0x18, 0x10,
   0x00, 0x00, 0x10, 0x00, 0x00, 0x10, 0x00, 0x00, 0x10, 0x00, 0x00, 0x10,
   0xff, 0xff, 0x1f};
