#define b5_width 21
#define b5_height 21
static char b5_bits[] = {
   0x00, 0x00, 0x10, 0x00, 0x00, 0x10, 0x00, 0x00, 0x10, 0x00, 0x00, 0x10,
   0xc0, 0x3f, 0x10, 0xc0, 0x3f, 0x10, 0xc0, 0x00, 0x10, 0xc0, 0x00, 0x10,
   0xc0, 0x3f, 0x10, 0xc0, 0x7f, 0x10, 0x00, 0x60, 0x10, 0x00, 0x60, 0x10,
   0x00, 0x60, 0x10, 0x00, 0x60, 0x10, 0xc0, 0x7f, 0x10, 0xc0, 0x3f, 0x10,
   0x00, 0x00, 0x10, 0x00, 0x00, 0x10, 0x00, 0x00, 0x10, 0x00, 0x00, 0x10,
   0xff, 0xff, 0x1f};
