#define b7_width 21
#define b7_height 21
static char b7_bits[] = {
   0x00, 0x00, 0x10, 0x00, 0x00, 0x10, 0x00, 0x00, 0x10, 0x00, 0x00, 0x10,
   0xc0, 0x3f, 0x10, 0xc0, 0x3f, 0x10, 0x00, 0x30, 0x10, 0x00, 0x18, 0x10,
   0x00, 0x0c, 0x10, 0x00, 0x06, 0x10, 0x00, 0x06, 0x10, 0x00, 0x06, 0x10,
   0x00, 0x06, 0x10, 0x00, 0x06, 0x10, 0x00, 0x06, 0x10, 0x00, 0x00, 0x10,
   0x00, 0x00, 0x10, 0x00, 0x00, 0x10, 0x00, 0x00, 0x10, 0x00, 0x00, 0x10,
   0xff, 0xff, 0x1f};
