#define b8_width 21
#define b8_height 21
static char b8_bits[] = {
   0x00, 0x00, 0x10, 0x00, 0x00, 0x10, 0x00, 0x00, 0x10, 0x00, 0x00, 0x10,
   0x80, 0x3f, 0x10, 0xc0, 0x7f, 0x10, 0xc0, 0x60, 0x10, 0xc0, 0x60, 0x10,
   0xc0, 0x60, 0x10, 0xc0, 0x7f, 0x10, 0xc0, 0x7f, 0x10, 0xc0, 0x60, 0x10,
   0xc0, 0x60, 0x10, 0xc0, 0x60, 0x10, 0xc0, 0x7f, 0x10, 0x80, 0x3f, 0x10,
   0x00, 0x00, 0x10, 0x00, 0x00, 0x10, 0x00, 0x00, 0x10, 0x00, 0x00, 0x10,
   0xff, 0xff, 0x1f};
