#define bomb_width 21
#define bomb_height 21
static char bomb_bits[] = {
   0x00, 0x00, 0x10, 0x12, 0x00, 0x10, 0x48, 0x00, 0x10, 0x1c, 0x00, 0x10,
   0x70, 0x3e, 0x10, 0xf6, 0xff, 0x10, 0xf0, 0xfb, 0x11, 0xe0, 0xfa, 0x13,
   0x60, 0xff, 0x13, 0x70, 0xff, 0x17, 0xf0, 0xff, 0x17, 0xf0, 0x7f, 0x17,
   0xf0, 0xff, 0x17, 0xf0, 0x7f, 0x16, 0xe0, 0x7f, 0x13, 0xe0, 0x9b, 0x13,
   0xc0, 0xef, 0x11, 0x80, 0xff, 0x10, 0x00, 0x3e, 0x10, 0x00, 0x00, 0x10,
   0xff, 0xff, 0x1f};
