#define marked_width 21
#define marked_height 21
static char marked_bits[] = {
   0xaa, 0xaa, 0x1a, 0x55, 0x55, 0x1d, 0xfe, 0xff, 0x1f, 0x05, 0x00, 0x1e,
   0x06, 0x00, 0x1e, 0x05, 0x06, 0x1e, 0x06, 0x05, 0x1e, 0xc5, 0x04, 0x1e,
   0x06, 0x05, 0x1e, 0x05, 0x06, 0x1e, 0x06, 0x04, 0x1e, 0x05, 0x04, 0x1e,
   0x06, 0x04, 0x1e, 0x05, 0x04, 0x1e, 0x06, 0x0f, 0x1e, 0xc5, 0x3f, 0x1e,
   0x06, 0x00, 0x1e, 0xfd, 0xff, 0x1f, 0xfe, 0xff, 0x1f, 0xff, 0xff, 0x1f,
   0xff, 0xff, 0x1f};
