#define question_width 21
#define question_height 21
static char question_bits[] = {
   0xaa, 0xaa, 0x1a, 0x55, 0x55, 0x1d, 0xfe, 0xff, 0x1f, 0x55, 0x55, 0x1f,
   0xae, 0xaf, 0x1e, 0xd5, 0x5f, 0x1f, 0xee, 0xba, 0x1e, 0x75, 0x75, 0x1f,
   0xee, 0xba, 0x1e, 0x55, 0x5d, 0x1f, 0xae, 0xae, 0x1e, 0x55, 0x57, 0x1f,
   0xae, 0xaa, 0x1e, 0x55, 0x57, 0x1f, 0xae, 0xaf, 0x1e, 0x55, 0x57, 0x1f,
   0xae, 0xaa, 0x1e, 0xfd, 0xff, 0x1f, 0xfe, 0xff, 0x1f, 0xff, 0xff, 0x1f,
   0xff, 0xff, 0x1f};
