#define unknown_width 21
#define unknown_height 21
static char unknown_bits[] = {
   0xaa, 0xaa, 0x1a, 0x55, 0x55, 0x1d, 0xfe, 0xff, 0x1f, 0x55, 0x55, 0x1f,
   0xae, 0xaa, 0x1e, 0x55, 0x55, 0x1f, 0xae, 0xaa, 0x1e, 0x55, 0x55, 0x1f,
   0xae, 0xaa, 0x1e, 0x55, 0x55, 0x1f, 0xae, 0xaa, 0x1e, 0x55, 0x55, 0x1f,
   0xae, 0xaa, 0x1e, 0x55, 0x55, 0x1f, 0xae, 0xaa, 0x1e, 0x55, 0x55, 0x1f,
   0xae, 0xaa, 0x1e, 0xfd, 0xff, 0x1f, 0xfe, 0xff, 0x1f, 0xff, 0xff, 0x1f,
   0xff, 0xff, 0x1f};
