#define wrongmarked_width 21
#define wrongmarked_height 21
static char wrongmarked_bits[] = {
   0xaa, 0xaa, 0x1a, 0x55, 0x55, 0x1d, 0xfe, 0xff, 0x1f, 0x05, 0x00, 0x1e,
   0x36, 0xc0, 0x1e, 0x75, 0xe6, 0x1e, 0xe6, 0x75, 0x1e, 0xc5, 0x3d, 0x1e,
   0x86, 0x1f, 0x1e, 0x05, 0x0f, 0x1e, 0x06, 0x0f, 0x1e, 0x85, 0x1f, 0x1e,
   0xc6, 0x3d, 0x1e, 0xe5, 0x74, 0x1e, 0x76, 0xef, 0x1e, 0xf5, 0xff, 0x1e,
   0x06, 0x00, 0x1e, 0xfd, 0xff, 0x1f, 0xfe, 0xff, 0x1f, 0xff, 0xff, 0x1f,
   0xff, 0xff, 0x1f};
